<?xml version="1.0" encoding="utf-8"?>
<!-- Generator: Adobe Illustrator 26.1.0, SVG Export Plug-In . SVG Version: 6.00 Build 0)  -->
<svg version="1.1" id="Слой_1" xmlns="http://www.w3.org/2000/svg" xmlns:xlink="http://www.w3.org/1999/xlink" x="0px" y="0px"
	 viewBox="0 0 16 16" style="enable-background:new 0 0 16 16;" xml:space="preserve">
<style type="text/css">
	.st0{fill:#393838;}
	.st1{display:none;fill:#393838;}
	.st2{fill-rule:evenodd;clip-rule:evenodd;fill:#393838;}
</style>
<rect x="5" y="7.3" class="st0" width="6" height="1.2"/>
<rect x="7.3" y="5" class="st1" width="1.4" height="6"/>
<path class="st2" d="M2,0C0.9,0,0,0.9,0,2v12c0,1.1,0.9,2,2,2h12c1.1,0,2-0.9,2-2V2c0-1.1-0.9-2-2-2H2z M2,1C1.4,1,1,1.4,1,2v12
	c0,0.6,0.4,1,1,1h12c0.6,0,1-0.4,1-1V2c0-0.6-0.4-1-1-1H2z"/>
</svg>
