<svg width="20" height="20" viewBox="0 0 20 20" fill="none" xmlns="http://www.w3.org/2000/svg">
<path d="M19.1944 4.35518L12.6846 0.602997C12.6846 0.602997 11.6533 0 10.0079 0C8.29449 0 7.30175 0.621381 7.30175 0.621381L1.27179 4.07207L10.4454 9.34461V20L16.4827 16.553C16.4827 16.553 17.5619 15.9573 18.3818 14.5418C19.1043 13.2953 19.1944 12.0893 19.1944 12.0893V4.35518ZM9.37731 6.09063C9.37731 6.09063 10.723 5.84245 11.861 6.49876C12.999 7.15507 13.67 7.54113 13.67 7.54113C13.67 7.54113 13.6718 8.45482 13.6718 9.82076C13.6718 10.9146 12.7453 12.0489 12.7453 12.0489L12.7471 8.03566L9.37731 6.09063ZM14.7124 14.8929L12.7471 16.0199V14.9628L14.2767 14.0877C15.7327 13.038 15.9735 11.49 15.9735 10.9532L15.968 6.1991L11.7966 3.79814C11.7966 3.79814 11.1624 3.38266 10.0226 3.38266C8.88278 3.38266 8.2614 3.76689 8.2614 3.76689L6.79619 4.60888L5.87147 4.0739L7.89556 2.91755C7.89556 2.91755 8.68791 2.47817 10.0152 2.47817C11.2341 2.47817 12.1827 2.95432 12.1827 2.95432L16.8927 5.67515L16.8872 10.8631C16.9203 11.661 16.5489 13.6097 14.7124 14.8929Z" fill="#005F9E"/>
<path d="M0.808594 7.52275L7.23933 11.2124L7.23382 12.3118L3.57539 10.2142L1.27371 11.5231L7.23014 14.9554L7.23382 16.0143L0.852715 12.343C0.869261 12.7732 1.259 14.0987 2.00539 15.1246C2.76282 16.1632 3.62687 16.6045 3.62687 16.6045L9.52447 20V9.87407L0.814109 4.87177L0.808594 7.52275Z" fill="#005F9E"/>
</svg>
