<?xml version="1.0" standalone="no"?>
<!DOCTYPE svg PUBLIC "-//W3C//DTD SVG 20010904//EN"
 "http://www.w3.org/TR/2001/REC-SVG-20010904/DTD/svg10.dtd">
<svg version="1.0" xmlns="http://www.w3.org/2000/svg"
 width="700.000000pt" height="700.000000pt" viewBox="0 0 700.000000 700.000000"
 preserveAspectRatio="xMidYMid meet">
<metadata>
Created by potrace 1.14, written by Peter Selinger 2001-2017
</metadata>
<g transform="translate(0.000000,700.000000) scale(0.100000,-0.100000)"
fill="#000000" stroke="none">
<path d="M3110 6783 c-206 -119 -400 -229 -430 -246 -30 -16 -59 -33 -65 -37
-5 -4 -30 -19 -55 -32 -25 -14 -180 -103 -345 -198 -505 -291 -792 -456 -872
-501 -21 -12 -42 -25 -48 -29 -5 -4 -35 -21 -65 -37 -53 -29 -450 -254 -480
-273 -72 -43 -288 -166 -298 -168 -6 -2 -12 -11 -13 -20 -5 -95 -1 -3481 4
-3489 6 -10 61 -43 217 -131 25 -14 114 -65 198 -114 85 -48 156 -88 158 -88
3 0 17 -8 32 -19 22 -15 198 -116 372 -214 19 -10 124 -71 232 -133 109 -63
200 -114 203 -114 3 0 18 -8 33 -19 27 -19 160 -97 242 -143 25 -14 290 -166
590 -338 300 -172 561 -322 580 -333 19 -11 70 -39 112 -64 l77 -44 53 29 c51
28 465 264 2163 1237 440 252 810 463 822 469 l21 11 -1 1755 -2 1755 -125 71
c-69 39 -516 295 -995 569 -478 274 -891 510 -916 524 -25 14 -259 148 -520
298 -261 150 -481 274 -489 277 -8 3 -184 -92 -390 -211z m-799 -878 c24 -14
51 -30 59 -35 12 -8 349 -202 928 -536 57 -32 117 -67 135 -78 439 -254 742
-429 773 -446 21 -12 170 -98 329 -190 160 -92 306 -177 325 -188 111 -62 160
-94 161 -105 0 -7 2 -401 2 -877 l2 -865 -24 -22 c-13 -13 -36 -29 -50 -36
-20 -10 -603 -352 -983 -576 -65 -38 -356 -209 -413 -242 l-63 -37 0 1755 c0
965 -3 1757 -6 1760 -6 6 2 11 -278 -166 -117 -74 -247 -156 -288 -181 -66
-41 -221 -138 -420 -264 -36 -23 -74 -46 -85 -53 -11 -6 -100 -62 -197 -124
l-178 -111 -1 -52 c0 -28 0 -721 0 -1539 l-1 -1488 -51 30 c-29 16 -68 38 -87
49 -19 11 -222 127 -450 257 -228 131 -476 273 -550 315 l-135 77 -1 1565 -2
1564 87 49 c47 27 118 68 156 91 39 23 93 54 120 68 28 15 57 31 65 37 31 19
246 143 280 160 24 13 779 447 796 458 1 1 21 -10 45 -24z"/>
</g>
</svg>
