<svg width="22" height="16" viewBox="0 0 22 16" fill="none" xmlns="http://www.w3.org/2000/svg">
<path fill-rule="evenodd" clip-rule="evenodd" d="M5.98998 0.890061C9.32565 0.629094 12.6766 0.629094 16.0123 0.890061L18.253 1.06536C19.501 1.16301 20.5221 2.0984 20.7284 3.33317C21.2446 6.42267 21.2446 9.57641 20.7284 12.6659C20.5221 13.9007 19.501 14.8361 18.253 14.9337L16.0123 15.109C12.6766 15.37 9.32565 15.37 5.98998 15.109L3.74928 14.9337C2.50121 14.8361 1.48018 13.9007 1.27387 12.6659C0.757667 9.57641 0.757667 6.42267 1.27387 3.33317C1.48018 2.0984 2.50121 1.16301 3.74928 1.06536L5.98998 0.890061ZM9.0011 10.4697V5.5294C9.0011 5.29621 9.25549 5.15218 9.45545 5.27215L13.5724 7.74229C13.7666 7.85882 13.7666 8.14027 13.5724 8.25679L9.45545 10.7269C9.25549 10.8469 9.0011 10.7029 9.0011 10.4697Z" fill="#197ACF"/>
</svg>
