<svg width="33" height="34" viewBox="0 0 33 34" fill="none" xmlns="http://www.w3.org/2000/svg">
<path d="M16.1797 0.820312C20.4232 0.820312 24.4928 2.52495 27.4934 5.55923C30.494 8.59351 32.1797 12.7089 32.1797 17C32.1797 21.2911 30.494 25.4065 27.4934 28.4408C24.4928 31.475 20.4232 33.1797 16.1797 33.1797C11.9362 33.1797 7.86656 31.475 4.86598 28.4408C1.8654 25.4065 0.179688 21.2911 0.179688 17C0.179688 12.7089 1.8654 8.59351 4.86598 5.55923C7.86656 2.52495 11.9362 0.820312 16.1797 0.820312ZM9.17969 15.9888C8.91447 15.9888 8.66012 16.0953 8.47258 16.285C8.28504 16.4746 8.17969 16.7318 8.17969 17C8.17969 17.2682 8.28504 17.5254 8.47258 17.715C8.66012 17.9047 8.91447 18.0112 9.17969 18.0112H20.7657L16.4717 22.3514C16.2839 22.5413 16.1784 22.7988 16.1784 23.0674C16.1784 23.3359 16.2839 23.5935 16.4717 23.7833C16.6595 23.9732 16.9141 24.0799 17.1797 24.0799C17.4452 24.0799 17.6999 23.9732 17.8877 23.7833L23.8877 17.716C23.9808 17.622 24.0547 17.5104 24.1051 17.3876C24.1555 17.2647 24.1815 17.133 24.1815 17C24.1815 16.867 24.1555 16.7353 24.1051 16.6124C24.0547 16.4896 23.9808 16.378 23.8877 16.284L17.8877 10.2167C17.6999 10.0268 17.4452 9.92011 17.1797 9.92011C16.9141 9.92011 16.6595 10.0268 16.4717 10.2167C16.2839 10.4065 16.1784 10.6641 16.1784 10.9326C16.1784 11.2012 16.2839 11.4587 16.4717 11.6486L20.7657 15.9888H9.17969Z" fill="#6A6B74"/>
</svg>
