<svg width="16" height="14" viewBox="0 0 16 14" fill="none" xmlns="http://www.w3.org/2000/svg">
<mask id="path-1-inside-1_1356_1356" fill="white">
<path fill-rule="evenodd" clip-rule="evenodd" d="M10.646 0.146C10.6924 0.0994368 10.7476 0.0624943 10.8084 0.0372877C10.8691 0.0120811 10.9342 -0.000893593 11 -0.000893593C11.0658 -0.000893593 11.1309 0.0120811 11.1916 0.0372877C11.2524 0.0624943 11.3076 0.0994368 11.354 0.146L15.354 4.146C15.4479 4.23989 15.5006 4.36722 15.5006 4.5C15.5006 4.63278 15.4479 4.76011 15.354 4.854C15.2601 4.94789 15.1328 5.00063 15 5.00063C14.8672 5.00063 14.7399 4.94789 14.646 4.854L11.5 1.707V11.5C11.5 12.163 11.2366 12.7989 10.7678 13.2678C10.2989 13.7366 9.66304 14 9 14H1C0.867392 14 0.740214 13.9473 0.646446 13.8536C0.552678 13.7598 0.5 13.6326 0.5 13.5C0.5 13.3674 0.552678 13.2402 0.646446 13.1464C0.740214 13.0527 0.867392 13 1 13H9C9.39782 13 9.77936 12.842 10.0607 12.5607C10.342 12.2794 10.5 11.8978 10.5 11.5V1.707L7.354 4.854C7.26011 4.94789 7.13278 5.00063 7 5.00063C6.86722 5.00063 6.73989 4.94789 6.646 4.854C6.55211 4.76011 6.49937 4.63278 6.49937 4.5C6.49937 4.36722 6.55211 4.23989 6.646 4.146L10.646 0.146Z"/>
</mask>
<path fill-rule="evenodd" clip-rule="evenodd" d="M10.646 0.146C10.6924 0.0994368 10.7476 0.0624943 10.8084 0.0372877C10.8691 0.0120811 10.9342 -0.000893593 11 -0.000893593C11.0658 -0.000893593 11.1309 0.0120811 11.1916 0.0372877C11.2524 0.0624943 11.3076 0.0994368 11.354 0.146L15.354 4.146C15.4479 4.23989 15.5006 4.36722 15.5006 4.5C15.5006 4.63278 15.4479 4.76011 15.354 4.854C15.2601 4.94789 15.1328 5.00063 15 5.00063C14.8672 5.00063 14.7399 4.94789 14.646 4.854L11.5 1.707V11.5C11.5 12.163 11.2366 12.7989 10.7678 13.2678C10.2989 13.7366 9.66304 14 9 14H1C0.867392 14 0.740214 13.9473 0.646446 13.8536C0.552678 13.7598 0.5 13.6326 0.5 13.5C0.5 13.3674 0.552678 13.2402 0.646446 13.1464C0.740214 13.0527 0.867392 13 1 13H9C9.39782 13 9.77936 12.842 10.0607 12.5607C10.342 12.2794 10.5 11.8978 10.5 11.5V1.707L7.354 4.854C7.26011 4.94789 7.13278 5.00063 7 5.00063C6.86722 5.00063 6.73989 4.94789 6.646 4.854C6.55211 4.76011 6.49937 4.63278 6.49937 4.5C6.49937 4.36722 6.55211 4.23989 6.646 4.146L10.646 0.146Z" fill="#393838"/>
<path d="M10.646 0.146L11.354 0.852213L11.3531 0.853106L10.646 0.146ZM11.354 0.146L10.6469 0.853107L10.646 0.852212L11.354 0.146ZM15.354 4.146L16.0611 3.43889L15.354 4.146ZM15 5.00063V4.00063V5.00063ZM14.646 4.854L13.9389 5.56111L13.9388 5.56099L14.646 4.854ZM11.5 1.707H10.5V-0.707757L12.2072 1.00001L11.5 1.707ZM1 14V15V14ZM1 13V12V13ZM10.5 1.707L9.79278 1.00001L11.5 -0.707757V1.707H10.5ZM7.354 4.854L8.06122 5.56099L8.06111 5.56111L7.354 4.854ZM7 5.00063V6.00063V5.00063ZM6.49937 4.5H5.49937H6.49937ZM6.646 4.146L5.93889 3.43889L6.646 4.146ZM9.938 -0.560212C10.0773 -0.699903 10.2429 -0.810731 10.4251 -0.88635L11.1916 0.960925C11.2524 0.935719 11.3076 0.898776 11.354 0.852212L9.938 -0.560212ZM10.4251 -0.88635C10.6073 -0.961969 10.8027 -1.00089 11 -1.00089V0.999106C11.0658 0.999106 11.1309 0.986132 11.1916 0.960925L10.4251 -0.88635ZM11 -1.00089C11.1973 -1.00089 11.3927 -0.961968 11.5749 -0.88635L10.8084 0.960925C10.8691 0.986131 10.9342 0.999106 11 0.999106V-1.00089ZM11.5749 -0.88635C11.7571 -0.810733 11.9227 -0.699906 12.062 -0.560212L10.646 0.852212C10.6924 0.89878 10.7476 0.935721 10.8084 0.960925L11.5749 -0.88635ZM12.0611 -0.561107L16.0611 3.43889L14.6469 4.85311L10.6469 0.853106L12.0611 -0.561107ZM16.0611 3.43889C16.3425 3.72032 16.5006 4.10201 16.5006 4.5H14.5006C14.5006 4.63244 14.5532 4.75946 14.6469 4.85311L16.0611 3.43889ZM16.5006 4.5C16.5006 4.89799 16.3425 5.27968 16.0611 5.56111L14.6469 4.14689C14.5532 4.24054 14.5006 4.36756 14.5006 4.5H16.5006ZM16.0611 5.56111C15.7797 5.84253 15.398 6.00063 15 6.00063V4.00063C14.8676 4.00063 14.7405 4.05324 14.6469 4.14689L16.0611 5.56111ZM15 6.00063C14.602 6.00063 14.2203 5.84253 13.9389 5.56111L15.3531 4.14689C15.2595 4.05324 15.1324 4.00063 15 4.00063V6.00063ZM13.9388 5.56099L10.7928 2.41399L12.2072 1.00001L15.3532 4.14701L13.9388 5.56099ZM12.5 1.707V11.5H10.5V1.707H12.5ZM12.5 11.5C12.5 12.4283 12.1313 13.3185 11.4749 13.9749L10.0607 12.5607C10.342 12.2794 10.5 11.8978 10.5 11.5H12.5ZM11.4749 13.9749C10.8185 14.6313 9.92826 15 9 15V13C9.39782 13 9.77936 12.842 10.0607 12.5607L11.4749 13.9749ZM9 15H1V13H9V15ZM1 15C0.602176 15 0.220645 14.842 -0.0606605 14.5607L1.35355 13.1464C1.25978 13.0527 1.13261 13 1 13V15ZM-0.0606605 14.5607C-0.341967 14.2794 -0.5 13.8978 -0.5 13.5H1.5C1.5 13.3674 1.44732 13.2402 1.35355 13.1464L-0.0606605 14.5607ZM-0.5 13.5C-0.5 13.1022 -0.341967 12.7206 -0.0606605 12.4393L1.35355 13.8536C1.44732 13.7598 1.5 13.6326 1.5 13.5H-0.5ZM-0.0606605 12.4393C0.220645 12.158 0.602176 12 1 12V14C1.13261 14 1.25978 13.9473 1.35355 13.8536L-0.0606605 12.4393ZM1 12H9V14H1V12ZM9 12C9.13261 12 9.25978 11.9473 9.35355 11.8536L10.7678 13.2678C10.2989 13.7366 9.66304 14 9 14V12ZM9.35355 11.8536C9.44732 11.7598 9.5 11.6326 9.5 11.5H11.5C11.5 12.163 11.2366 12.7989 10.7678 13.2678L9.35355 11.8536ZM9.5 11.5V1.707H11.5V11.5H9.5ZM11.2072 2.41399L8.06122 5.56099L6.64678 4.14701L9.79278 1.00001L11.2072 2.41399ZM8.06111 5.56111C7.77968 5.84253 7.39799 6.00063 7 6.00063V4.00063C6.86756 4.00063 6.74054 4.05324 6.64689 4.14689L8.06111 5.56111ZM7 6.00063C6.60201 6.00063 6.22032 5.84253 5.93889 5.56111L7.35311 4.14689C7.25946 4.05324 7.13244 4.00063 7 4.00063V6.00063ZM5.93889 5.56111C5.65747 5.27968 5.49937 4.89799 5.49937 4.5H7.49937C7.49937 4.36756 7.44676 4.24054 7.35311 4.14689L5.93889 5.56111ZM5.49937 4.5C5.49937 4.10201 5.65747 3.72032 5.93889 3.43889L7.35311 4.85311C7.44676 4.75946 7.49937 4.63244 7.49937 4.5H5.49937ZM5.93889 3.43889L9.93889 -0.561107L11.3531 0.853106L7.35311 4.85311L5.93889 3.43889Z" fill="#393838" mask="url(#path-1-inside-1_1356_1356)"/>
</svg>
